<?xml version="1.0" encoding="UTF-8"?>
<!DOCTYPE svg PUBLIC "-//W3C//DTD SVG 1.1//EN" "http://www.w3.org/Graphics/SVG/1.1/DTD/svg11.dtd">
<!-- Creator: CorelDRAW 2019 (64-Bit) -->
<svg xmlns="http://www.w3.org/2000/svg" xml:space="preserve" width="100%" height="100%" version="1.1" style="shape-rendering:geometricPrecision; text-rendering:geometricPrecision; image-rendering:optimizeQuality; fill-rule:evenodd; clip-rule:evenodd"
viewBox="0 0 273.19 261.69"
 xmlns:xlink="http://www.w3.org/1999/xlink">
 <defs>
  <style type="text/css">
   <![CDATA[
    .fil1 {fill:#272425}
    .fil0 {fill:#8CD7F8}
   ]]>
  </style>
 </defs>
 <g id="Layer_x0020_1">
  <metadata id="CorelCorpID_0Corel-Layer"/>
  <g id="_1906341215200">
   <path class="fil0" d="M71.34 80.43c10.8,-3.24 11.51,-3 21.4,1.14l13.55 6.88c0.77,0.45 1.37,0.81 2.24,1.38 0.44,0.28 0.57,0.34 1.09,0.74 0.46,0.37 0.46,0.39 0.75,0.7 -0.92,1.5 -1.2,1.4 -2.39,2.68 -12.96,13.98 -19.26,30.81 -16.73,50.81 3.1,24.56 15.95,46.52 18.06,55.51 -3.91,2.44 -10.83,4.52 -16.73,3.95 -11.69,-1.13 -17.54,-11.58 -19.99,-21.68 -2.29,-9.42 -1.27,-49.58 -1.27,-60.87 0,-13.48 -0.49,-27.89 0.04,-41.25zm43.1 -36.09l0.36 15.09 -42.78 16.47 0.02 -16.97 42.39 -14.59zm7.26 -3.93c4.76,-2.22 9.71,-3.9 14.67,-6.1 3.8,-1.69 9.14,2.07 14.83,4.69 5.45,2.51 24.69,11.75 28.69,13.15l-0.11 28.16 -58.14 -24.31 0.06 -15.59zm-49.09 14.67c-1.57,-17.24 -12.33,-27.05 -25.78,-32.41 -11.95,-4.77 -10.59,-4 -21.72,0.24 -3.45,1.32 -19.46,7.14 -21.04,8.46l0.12 6.69 2.05 -1.68c8.77,-0.24 13.7,3.59 17.07,8.43 4.07,5.85 4.49,13.26 4.49,21.5l0 94.85c0,14.24 2.45,26.26 -7.28,33.23 -3.44,2.47 -6.11,2.53 -9.48,4.11l0.02 2.84c4.67,1.94 8.91,3.23 13.36,5.26 13.12,6 23.31,13.17 35.58,20.71 3.13,1.93 6.13,-0.81 12.59,-4.01 4.2,-2.07 8.29,-4.11 12.43,-6.17 4.24,-2.11 8.14,-4 12.45,-6.15 3.27,-1.63 9.84,-5.3 12.68,-6.13 3.74,17.13 -5.03,27.07 -13.74,34.13 -12.3,9.99 -30.79,15.93 -32.8,17.47 5.65,2.83 9.12,0.15 14.07,-2.61 10.79,-6.01 28.96,-13.42 40.7,-18.78 16.43,-7.49 41.56,-17.02 44.83,-34.13 4.48,-23.46 -32,-61.78 0.52,-101.56 1.64,-2 2.86,-3.11 4.81,-5.19 1.83,-1.96 8.21,-7.1 10.96,-8.63 0.42,10.06 0.04,20.97 0.04,31.12l0 63.08c0,11.65 -0.55,18.21 3.62,28.31 2.88,6.98 8.9,13.14 14.8,16.51 3.41,1.95 7.07,3.51 11.37,4.56 2.86,0.7 3.04,0.17 5.56,-1.03 9.14,-4.36 42.48,-19.11 48.69,-22.58 -8.05,-6.19 -10.85,4.69 -24.87,3.3 -9.28,-0.92 -12.5,-10.19 -12.5,-20l0 -123.89c0,-6.67 2.07,-13.33 5.48,-17.01 1,-1.08 1.66,-1.8 2.74,-2.69 1.02,-0.84 2.29,-1.71 3.33,-2.59 2.01,-1.69 5.02,-3.72 6.5,-5.44 -2.24,-0.74 -2.64,-1.89 -4.76,-0.56 -4.55,2.84 -8.19,6.74 -15.31,6.69 -6.81,-0.06 -15.64,-5.09 -21.54,-7.67l-29.91 -13.21c-3.73,-1.64 -5.75,-1.06 -5.69,-8.8 1.44,-1.38 3.18,-2.66 4.77,-3.8 1.73,-1.24 3.54,-2.78 5.19,-3.85 -3.27,-3.6 -5.11,-0.49 -11.69,4.18 -3.96,2.81 -7.36,5.32 -11.25,8.24l-17.2 12.31 -49.62 18.9c-4.63,1.68 -10.11,4.3 -14.64,5.44z"/>
   <path class="fil1" d="M72.61 55.09c4.54,-1.14 10.01,-3.76 14.64,-5.44l49.62 -18.9 17.2 -12.31c3.89,-2.92 7.29,-5.43 11.25,-8.24 6.58,-4.67 8.42,-7.78 11.69,-4.18 -1.65,1.08 -3.46,2.61 -5.19,3.85 -1.59,1.14 -3.33,2.42 -4.77,3.8 -0.06,7.73 1.96,7.16 5.69,8.8l29.91 13.21c5.91,2.57 14.74,7.61 21.54,7.67 7.12,0.06 10.76,-3.84 15.31,-6.69 2.13,-1.33 2.52,-0.18 4.76,0.56 -1.48,1.72 -4.49,3.75 -6.5,5.44 -1.04,0.87 -2.31,1.74 -3.33,2.59 -1.08,0.89 -1.74,1.61 -2.74,2.69 -3.41,3.68 -5.48,10.34 -5.48,17.01l-0 123.89c0,9.81 3.22,19.07 12.5,20 14.02,1.39 16.83,-9.49 24.87,-3.3 -6.21,3.48 -39.55,18.22 -48.69,22.58 -2.52,1.2 -2.69,1.72 -5.56,1.03 -4.3,-1.05 -7.96,-2.61 -11.37,-4.56 -5.9,-3.37 -11.92,-9.52 -14.8,-16.51 -4.17,-10.1 -3.62,-16.66 -3.62,-28.31l0 -63.08c0,-10.15 0.39,-21.07 -0.04,-31.12 -2.76,1.53 -9.13,6.67 -10.96,8.63 -1.94,2.08 -3.17,3.18 -4.81,5.19 -32.52,39.78 3.96,78.09 -0.52,101.56 -3.27,17.11 -28.4,26.64 -44.83,34.13 -11.74,5.35 -29.91,12.76 -40.7,18.78 -4.95,2.76 -8.42,5.44 -14.07,2.61 2.01,-1.54 20.5,-7.48 32.8,-17.47 8.7,-7.07 17.48,-17.01 13.74,-34.13 -2.83,0.83 -9.41,4.5 -12.68,6.13 -4.31,2.16 -8.21,4.05 -12.45,6.15 -4.15,2.06 -8.24,4.09 -12.43,6.17 -6.47,3.2 -9.46,5.93 -12.59,4.01 -12.28,-7.54 -22.46,-14.71 -35.58,-20.71 -4.45,-2.04 -8.69,-3.32 -13.36,-5.26l-0.02 -2.84c3.38,-1.58 6.04,-1.65 9.48,-4.11 9.73,-6.97 7.28,-18.98 7.28,-33.23l0 -94.85c0,-8.25 -0.43,-15.65 -4.49,-21.5 -3.36,-4.83 -8.3,-8.67 -17.07,-8.43l-2.05 1.68 -0.12 -6.69c1.58,-1.33 17.59,-7.15 21.04,-8.46 11.13,-4.24 9.77,-5 21.72,-0.24 13.45,5.37 24.22,15.17 25.78,32.41zm3.17 -5.56c-0.6,-7.27 -4.96,-13.31 -9.39,-18.29 -0.57,-0.65 -0.54,-0.69 -1.05,-1.22 -0.57,-0.61 -0.53,-0.52 -1.18,-1.09l-8.08 -5.98c-1.12,-0.66 -1.83,-1.03 -2.89,-1.65 -3.5,-2.04 -14.07,-6.26 -17.79,-6.26 -2.23,0 -22.85,8.5 -26.39,9.92 -2.47,0.99 -6.39,3.02 -9.01,3.24 0,6.55 0.45,11.8 0.45,18.61 5.83,-3.91 5.88,-8.38 12.41,-5.6 9.37,4 11.19,14 11.19,23.75l0 113c0,5.4 -1.62,10.07 -4.78,12.46 -11.94,9.07 -12.02,-2.67 -12.02,12.94 0,1.59 4.77,2.56 7.09,3.35l10.87 4.56c7.9,4.09 15.75,8.82 23.25,13.51l12.8 8.08c1.72,0 44.46,-21.51 45.83,-22.24 0.09,3.84 0.18,6.25 -1.18,10.17 -2.96,8.57 -10.34,14.3 -17.61,19.15 -2.76,1.84 -4.96,2.76 -7.79,4.46 -7.87,4.72 -17.33,7.18 -25.61,11.15 2.44,5.1 -2.5,3.2 6.61,4.73 10.68,1.79 7.82,2.65 17.01,-2.44 2.45,-1.36 4.9,-2.48 7.54,-3.8 10.32,-5.16 20.9,-9.65 31.47,-14.37l11.64 -5.15c16.77,-8.11 38.28,-16.82 38.28,-38.87 0,-15.36 -13.16,-37.67 -13.16,-57.18 0,-12.25 1.12,-19.39 7.06,-29.24 3,-4.98 9.42,-13.12 14.27,-15.69l-0.02 98.49c0,3.31 0.76,6.83 1.33,9.56 3.09,14.9 14.81,27.22 29.54,30.81 3.11,0.76 3.37,-0.07 3.63,2.27l39.09 -18.09c6.76,-2.74 13.06,-6.44 19.84,-9.2 1.4,-0.57 2.58,-1.39 4.15,-1.75l0 -0.91c-3.34,-0.78 -9.53,-3.57 -12.77,-4.94 -4.45,-1.88 -4.26,0.78 -12.12,3.65 -12.11,4.43 -18.22,-0.93 -18.22,-14.13l0 -124.8c0,-7.7 2.67,-12.8 8.23,-17.19 3.59,-2.83 6.87,-5.88 10.98,-8.08 1.61,-0.86 3,-1.14 3.94,-2.42 -2.8,-0.65 -9.83,-3.93 -12.71,-5.45 -17.03,11.41 -15.69,9.57 -34.61,1.49l-31.19 -13.74c-1.44,-0.63 -3.43,-1.23 -3.49,-2.81 -0.07,-1.88 4.75,-4.69 6.21,-5.81 1.22,-0.93 2.31,-1.81 3.57,-2.78 1.67,-1.31 2.48,-1.29 3.7,-3.11 -8.1,-1.89 -9.32,-6.9 -13.81,-3.38l-29.36 21.47c-8.71,6.59 -10.71,6.06 -20.81,10.05l-37.15 14.13c-1.63,0.66 -5.88,2.5 -7.78,2.66z"/>
   <path class="fil1" d="M86.68 134.84c0,16.67 4.52,28.4 9.25,42.03l8.44 21.5c-10.84,5.2 -21.76,1.14 -26.27,-11.39 -1.23,-3.42 -2.77,-7.32 -2.77,-11.75l0 -90.76c0,-1.63 1.63,-1.47 3.17,-1.83 4.85,-1.14 5.48,-0.38 11.88,2.21 5.06,2.05 9.42,4.45 14,6.88 -0.37,1.39 -1.48,2.24 -3.07,4.19 -8.87,10.81 -14.63,24.04 -14.63,38.92zm-15.33 -54.41c-0.53,13.37 -0.04,27.77 -0.04,41.25 0,11.29 -1.02,51.45 1.27,60.87 2.45,10.1 8.3,20.55 19.99,21.68 5.9,0.57 12.83,-1.51 16.73,-3.95 -2.11,-8.99 -14.95,-30.95 -18.06,-55.51 -2.53,-20 3.77,-36.84 16.73,-50.81 1.19,-1.28 1.47,-1.18 2.39,-2.68 -0.29,-0.31 -0.29,-0.33 -0.75,-0.7 -0.52,-0.41 -0.64,-0.46 -1.09,-0.74 -0.88,-0.57 -1.48,-0.93 -2.24,-1.38l-13.55 -6.88c-9.89,-4.14 -10.59,-4.38 -21.4,-1.14z"/>
   <path class="fil1" d="M125.7 42.72c2.96,-0.24 11.33,-4.99 13.16,-4.99 0.51,0 34.3,15.7 37.21,17.24l0 19.52 -50.37 -20.87 0 -10.89zm-4 -2.3l-0.06 15.59 58.14 24.31 0.11 -28.16c-3.99,-1.39 -23.24,-10.63 -28.69,-13.15 -5.69,-2.63 -11.03,-6.39 -14.83,-4.69 -4.96,2.2 -9.91,3.88 -14.67,6.1z"/>
   <path class="fil1" d="M75.78 69.95c0,-10.96 -3.2,-6.74 16.85,-14.01l13.11 -4.59c1.81,-0.59 2.74,-1.31 4.99,-1.36 0,7.83 2.17,6.33 -8.11,10.04l-21.97 8.43c-1.71,0.67 -2.81,1.45 -4.86,1.5zm-3.74 -11.02l-0.02 16.97 42.78 -16.47 -0.36 -15.09 -42.39 14.59z"/>
  </g>
 </g>
</svg>
