<?xml version="1.0" encoding="UTF-8"?>
<!DOCTYPE svg PUBLIC "-//W3C//DTD SVG 1.1//EN" "http://www.w3.org/Graphics/SVG/1.1/DTD/svg11.dtd">
<!-- Creator: CorelDRAW 2019 (64-Bit) -->
<svg xmlns="http://www.w3.org/2000/svg" xml:space="preserve" width="100%" height="100%" version="1.1" style="shape-rendering:geometricPrecision; text-rendering:geometricPrecision; image-rendering:optimizeQuality; fill-rule:evenodd; clip-rule:evenodd"
viewBox="0 0 1888.96 261.69"
 xmlns:xlink="http://www.w3.org/1999/xlink">
 <defs>
  <style type="text/css">
   <![CDATA[
    .fil1 {fill:#272425}
    .fil0 {fill:#8CD7F8}
    .fil2 {fill:#373435;fill-rule:nonzero}
   ]]>
  </style>
    <clipPath id="id0">
     <path d="M287.92 54.44l1601.04 0 0 150.39 -1601.04 0 0 -150.39z"/>
    </clipPath>
 </defs>
 <g id="Layer_x0020_1">
  <metadata id="CorelCorpID_0Corel-Layer"/>
  <g id="_1906893007600">
   <path class="fil0" d="M71.34 80.43c10.8,-3.24 11.51,-3 21.4,1.14l13.55 6.88c0.77,0.45 1.37,0.81 2.24,1.38 0.44,0.28 0.57,0.34 1.09,0.74 0.46,0.37 0.46,0.39 0.75,0.7 -0.92,1.5 -1.2,1.4 -2.39,2.68 -12.96,13.98 -19.26,30.81 -16.73,50.81 3.1,24.56 15.95,46.52 18.06,55.51 -3.91,2.44 -10.83,4.52 -16.73,3.95 -11.69,-1.13 -17.54,-11.58 -19.99,-21.68 -2.29,-9.42 -1.27,-49.58 -1.27,-60.87 0,-13.48 -0.49,-27.89 0.04,-41.25zm43.1 -36.09l0.36 15.09 -42.78 16.47 0.02 -16.97 42.39 -14.59zm7.26 -3.93c4.76,-2.22 9.71,-3.9 14.67,-6.1 3.8,-1.69 9.14,2.07 14.83,4.69 5.45,2.51 24.69,11.75 28.69,13.15l-0.11 28.16 -58.14 -24.31 0.06 -15.59zm-49.09 14.67c-1.57,-17.24 -12.33,-27.05 -25.78,-32.41 -11.95,-4.77 -10.59,-4 -21.72,0.24 -3.45,1.32 -19.46,7.14 -21.04,8.46l0.12 6.69 2.05 -1.68c8.77,-0.24 13.7,3.59 17.07,8.43 4.07,5.85 4.49,13.26 4.49,21.5l0 94.85c0,14.24 2.45,26.26 -7.28,33.23 -3.44,2.47 -6.11,2.53 -9.48,4.11l0.02 2.84c4.67,1.94 8.91,3.23 13.36,5.26 13.12,6 23.31,13.17 35.58,20.71 3.13,1.93 6.13,-0.81 12.59,-4.01 4.2,-2.07 8.29,-4.11 12.43,-6.17 4.24,-2.11 8.14,-4 12.45,-6.15 3.27,-1.63 9.84,-5.3 12.68,-6.13 3.74,17.13 -5.03,27.07 -13.74,34.13 -12.3,9.99 -30.79,15.93 -32.8,17.47 5.65,2.83 9.12,0.15 14.07,-2.61 10.79,-6.01 28.96,-13.42 40.7,-18.78 16.43,-7.49 41.56,-17.02 44.83,-34.13 4.48,-23.46 -32,-61.78 0.52,-101.56 1.64,-2 2.86,-3.11 4.81,-5.19 1.83,-1.96 8.21,-7.1 10.96,-8.63 0.42,10.06 0.04,20.97 0.04,31.12l0 63.08c0,11.65 -0.55,18.21 3.62,28.31 2.88,6.98 8.9,13.14 14.8,16.51 3.41,1.95 7.07,3.51 11.37,4.56 2.86,0.7 3.04,0.17 5.56,-1.03 9.14,-4.36 42.48,-19.11 48.69,-22.58 -8.05,-6.19 -10.85,4.69 -24.87,3.3 -9.28,-0.92 -12.5,-10.19 -12.5,-20l0 -123.89c0,-6.67 2.07,-13.33 5.48,-17.01 1,-1.08 1.66,-1.8 2.74,-2.69 1.02,-0.84 2.29,-1.71 3.33,-2.59 2.01,-1.69 5.02,-3.72 6.5,-5.44 -2.24,-0.74 -2.64,-1.89 -4.76,-0.56 -4.55,2.84 -8.19,6.74 -15.31,6.69 -6.81,-0.06 -15.64,-5.09 -21.54,-7.67l-29.91 -13.21c-3.73,-1.64 -5.75,-1.06 -5.69,-8.8 1.44,-1.38 3.18,-2.66 4.77,-3.8 1.73,-1.24 3.54,-2.78 5.19,-3.85 -3.27,-3.6 -5.11,-0.49 -11.69,4.18 -3.96,2.81 -7.36,5.32 -11.25,8.24l-17.2 12.31 -49.62 18.9c-4.63,1.68 -10.11,4.3 -14.64,5.44z"/>
   <path class="fil1" d="M72.61 55.09c4.54,-1.14 10.01,-3.76 14.64,-5.44l49.62 -18.9 17.2 -12.31c3.89,-2.92 7.29,-5.43 11.25,-8.24 6.58,-4.67 8.42,-7.78 11.69,-4.18 -1.65,1.08 -3.46,2.61 -5.19,3.85 -1.59,1.14 -3.33,2.42 -4.77,3.8 -0.06,7.73 1.96,7.16 5.69,8.8l29.91 13.21c5.91,2.57 14.74,7.61 21.54,7.67 7.12,0.06 10.76,-3.84 15.31,-6.69 2.13,-1.33 2.52,-0.18 4.76,0.56 -1.48,1.72 -4.49,3.75 -6.5,5.44 -1.04,0.87 -2.31,1.74 -3.33,2.59 -1.08,0.89 -1.74,1.61 -2.74,2.69 -3.41,3.68 -5.48,10.34 -5.48,17.01l-0 123.89c0,9.81 3.22,19.07 12.5,20 14.02,1.39 16.83,-9.49 24.87,-3.3 -6.21,3.48 -39.55,18.22 -48.69,22.58 -2.52,1.2 -2.69,1.72 -5.56,1.03 -4.3,-1.05 -7.96,-2.61 -11.37,-4.56 -5.9,-3.37 -11.92,-9.52 -14.8,-16.51 -4.17,-10.1 -3.62,-16.66 -3.62,-28.31l0 -63.08c0,-10.15 0.39,-21.07 -0.04,-31.12 -2.76,1.53 -9.13,6.67 -10.96,8.63 -1.94,2.08 -3.17,3.18 -4.81,5.19 -32.52,39.78 3.96,78.09 -0.52,101.56 -3.27,17.11 -28.4,26.64 -44.83,34.13 -11.74,5.35 -29.91,12.76 -40.7,18.78 -4.95,2.76 -8.42,5.44 -14.07,2.61 2.01,-1.54 20.5,-7.48 32.8,-17.47 8.7,-7.07 17.48,-17.01 13.74,-34.13 -2.83,0.83 -9.41,4.5 -12.68,6.13 -4.31,2.16 -8.21,4.05 -12.45,6.15 -4.15,2.06 -8.24,4.09 -12.43,6.17 -6.47,3.2 -9.46,5.93 -12.59,4.01 -12.28,-7.54 -22.46,-14.71 -35.58,-20.71 -4.45,-2.04 -8.69,-3.32 -13.36,-5.26l-0.02 -2.84c3.38,-1.58 6.04,-1.65 9.48,-4.11 9.73,-6.97 7.28,-18.98 7.28,-33.23l0 -94.85c0,-8.25 -0.43,-15.65 -4.49,-21.5 -3.36,-4.83 -8.3,-8.67 -17.07,-8.43l-2.05 1.68 -0.12 -6.69c1.58,-1.33 17.59,-7.15 21.04,-8.46 11.13,-4.24 9.77,-5 21.72,-0.24 13.45,5.37 24.22,15.17 25.78,32.41zm3.17 -5.56c-0.6,-7.27 -4.96,-13.31 -9.39,-18.29 -0.57,-0.65 -0.54,-0.69 -1.05,-1.22 -0.57,-0.61 -0.53,-0.52 -1.18,-1.09l-8.08 -5.98c-1.12,-0.66 -1.83,-1.03 -2.89,-1.65 -3.5,-2.04 -14.07,-6.26 -17.79,-6.26 -2.23,0 -22.85,8.5 -26.39,9.92 -2.47,0.99 -6.39,3.02 -9.01,3.24 0,6.55 0.45,11.8 0.45,18.61 5.83,-3.91 5.88,-8.38 12.41,-5.6 9.37,4 11.19,14 11.19,23.75l0 113c0,5.4 -1.62,10.07 -4.78,12.46 -11.94,9.07 -12.02,-2.67 -12.02,12.94 0,1.59 4.77,2.56 7.09,3.35l10.87 4.56c7.9,4.09 15.75,8.82 23.25,13.51l12.8 8.08c1.72,0 44.46,-21.51 45.83,-22.24 0.09,3.84 0.18,6.25 -1.18,10.17 -2.96,8.57 -10.34,14.3 -17.61,19.15 -2.76,1.84 -4.96,2.76 -7.79,4.46 -7.87,4.72 -17.33,7.18 -25.61,11.15 2.44,5.1 -2.5,3.2 6.61,4.73 10.68,1.79 7.82,2.65 17.01,-2.44 2.45,-1.36 4.9,-2.48 7.54,-3.8 10.32,-5.16 20.9,-9.65 31.47,-14.37l11.64 -5.15c16.77,-8.11 38.28,-16.82 38.28,-38.87 0,-15.36 -13.16,-37.67 -13.16,-57.18 0,-12.25 1.12,-19.39 7.06,-29.24 3,-4.98 9.42,-13.12 14.27,-15.69l-0.02 98.49c0,3.31 0.76,6.83 1.33,9.56 3.09,14.9 14.81,27.22 29.54,30.81 3.11,0.76 3.37,-0.07 3.63,2.27l39.09 -18.09c6.76,-2.74 13.06,-6.44 19.84,-9.2 1.4,-0.57 2.58,-1.39 4.15,-1.75l0 -0.91c-3.34,-0.78 -9.53,-3.57 -12.77,-4.94 -4.45,-1.88 -4.26,0.78 -12.12,3.65 -12.11,4.43 -18.22,-0.93 -18.22,-14.13l0 -124.8c0,-7.7 2.67,-12.8 8.23,-17.19 3.59,-2.83 6.87,-5.88 10.98,-8.08 1.61,-0.86 3,-1.14 3.94,-2.42 -2.8,-0.65 -9.83,-3.93 -12.71,-5.45 -17.03,11.41 -15.69,9.57 -34.61,1.49l-31.19 -13.74c-1.44,-0.63 -3.43,-1.23 -3.49,-2.81 -0.07,-1.88 4.75,-4.69 6.21,-5.81 1.22,-0.93 2.31,-1.81 3.57,-2.78 1.67,-1.31 2.48,-1.29 3.7,-3.11 -8.1,-1.89 -9.32,-6.9 -13.81,-3.38l-29.36 21.47c-8.71,6.59 -10.71,6.06 -20.81,10.05l-37.15 14.13c-1.63,0.66 -5.88,2.5 -7.78,2.66z"/>
   <path class="fil1" d="M86.68 134.84c0,16.67 4.52,28.4 9.25,42.03l8.44 21.5c-10.84,5.2 -21.76,1.14 -26.27,-11.39 -1.23,-3.42 -2.77,-7.32 -2.77,-11.75l0 -90.76c0,-1.63 1.63,-1.47 3.17,-1.83 4.85,-1.14 5.48,-0.38 11.88,2.21 5.06,2.05 9.42,4.45 14,6.88 -0.37,1.39 -1.48,2.24 -3.07,4.19 -8.87,10.81 -14.63,24.04 -14.63,38.92zm-15.33 -54.41c-0.53,13.37 -0.04,27.77 -0.04,41.25 0,11.29 -1.02,51.45 1.27,60.87 2.45,10.1 8.3,20.55 19.99,21.68 5.9,0.57 12.83,-1.51 16.73,-3.95 -2.11,-8.99 -14.95,-30.95 -18.06,-55.51 -2.53,-20 3.77,-36.84 16.73,-50.81 1.19,-1.28 1.47,-1.18 2.39,-2.68 -0.29,-0.31 -0.29,-0.33 -0.75,-0.7 -0.52,-0.41 -0.64,-0.46 -1.09,-0.74 -0.88,-0.57 -1.48,-0.93 -2.24,-1.38l-13.55 -6.88c-9.89,-4.14 -10.59,-4.38 -21.4,-1.14z"/>
   <path class="fil1" d="M125.7 42.72c2.96,-0.24 11.33,-4.99 13.16,-4.99 0.51,0 34.3,15.7 37.21,17.24l0 19.52 -50.37 -20.87 0 -10.89zm-4 -2.3l-0.06 15.59 58.14 24.31 0.11 -28.16c-3.99,-1.39 -23.24,-10.63 -28.69,-13.15 -5.69,-2.63 -11.03,-6.39 -14.83,-4.69 -4.96,2.2 -9.91,3.88 -14.67,6.1z"/>
   <path class="fil1" d="M75.78 69.95c0,-10.96 -3.2,-6.74 16.85,-14.01l13.11 -4.59c1.81,-0.59 2.74,-1.31 4.99,-1.36 0,7.83 2.17,6.33 -8.11,10.04l-21.97 8.43c-1.71,0.67 -2.81,1.45 -4.86,1.5zm-3.74 -11.02l-0.02 16.97 42.78 -16.47 -0.36 -15.09 -42.39 14.59z"/>
  </g>
  <g id="_1906893010928">
   <g style="clip-path:url(#id0)">
    <image x="287.92" y="54.44" width="1601.04" height="150.39" xlink:href="mjl_Images\mjl_ImgID1.png"/>
   </g>
  </g>
  <path class="fil2" d="M373.18 64.48l36.17 0 2.19 0c4.08,0 6.14,1.42 6.14,4.25 0,2.22 -1.08,3.7 -3.28,4.42 -1.78,0.58 -2.83,0.97 -3.14,1.08 -0.31,0.14 -0.61,0.47 -0.94,0.94 -0.64,0.89 -0.97,2.28 -0.97,4.17l0 81.5c0,1.89 0.33,3.28 0.97,4.14 0.33,0.5 0.64,0.8 0.94,0.94 0.3,0.14 1.36,0.5 3.14,1.08 2.19,0.72 3.28,2.19 3.28,4.42 0,2.8 -2.06,4.22 -6.14,4.22l-2.19 0 -36.25 0 -2.67 0c-2.39,0 -4.19,-0.36 -5.42,-1.11 -1.22,-0.72 -1.83,-1.81 -1.83,-3.28 0,-2.39 1.3,-3.89 3.91,-4.47 2.11,-0.56 3.33,-0.89 3.72,-1.03 0.39,-0.14 0.75,-0.44 1.14,-0.94 0.81,-0.97 1.22,-2.5 1.22,-4.64l0 -95.69zm-29.78 0l16.03 45.75 7.08 -24.67 0 27.03 -18.8 63.06 -4.31 0 -31.53 -93.75c-1.08,-3.14 -2.22,-5.25 -3.42,-6.33 -0.72,-0.72 -1.92,-1.22 -3.67,-1.56 -3.53,-0.75 -5.28,-2.44 -5.28,-5.06 0,-1.42 0.5,-2.5 1.5,-3.28 0.97,-0.8 2.42,-1.19 4.31,-1.19l38.08 0zm-31.72 37.56l8.67 24.56 0 24.47c0,2.5 0.08,4.3 0.28,5.39 0.19,1.08 0.61,2.28 1.28,3.58 1.11,2.39 2.69,4.17 4.69,5.36l3 1.94c2.06,1.25 3.09,2.64 3.09,4.17 0,2.75 -2.03,4.14 -6.06,4.14l-20.47 0c-4.09,0 -6.14,-1.36 -6.14,-4.06 0,-0.89 0.17,-1.56 0.53,-2 0.36,-0.47 1.06,-1 2.09,-1.58 6.03,-3.25 9.06,-8.92 9.06,-16.94l0 -49.03zm152 -37.56l32.8 0 22.61 95.69c0.42,1.69 0.92,3.17 1.44,4.47 0.5,1.03 1.58,1.89 3.25,2.53 1.41,0.61 2.39,1.19 2.94,1.81 0.53,0.58 0.8,1.39 0.8,2.44 0,2.8 -2.11,4.22 -6.33,4.22l-40.61 0c-1.61,0 -2.94,-0.39 -3.91,-1.19 -0.97,-0.78 -1.47,-1.83 -1.47,-3.14 0,-1.08 0.22,-1.89 0.64,-2.44 0.44,-0.53 1.42,-1.22 2.94,-2.03 1.08,-0.56 1.83,-1.14 2.28,-1.8 0.42,-0.64 0.64,-1.47 0.64,-2.44 0,-0.92 -0.09,-1.75 -0.25,-2.44l-2.56 -11.83 -22.69 0 2.19 -9.67 18.22 0 -14.97 -66.17 2.03 -8zm-5.61 20.75l4.14 16.86 -14.36 52.56c-0.42,1.53 -0.64,2.94 -0.64,4.25 0,3.41 1.61,5.86 4.8,7.3l2.83 1.31c1.8,0.8 2.69,2.17 2.69,4.08 0,2.69 -2,4.06 -5.97,4.06l-20.69 0c-2,0 -3.58,-0.42 -4.75,-1.25 -1.17,-0.86 -1.75,-2 -1.75,-3.47 0,-1.59 1.19,-2.86 3.58,-3.92 2.22,-0.97 3.86,-1.83 4.92,-2.64 1.06,-0.78 2.08,-1.86 3.06,-3.22 1.53,-2.22 2.78,-5.17 3.75,-8.86l18.39 -67.06zm113.67 -22.94l0 9.39c-3.36,0.92 -5.92,2.33 -7.69,4.28 -1.75,1.92 -2.64,4.3 -2.64,7.11 0,2.72 0.72,5.08 2.19,7.14 1.47,2.03 3.86,3.97 7.19,5.81 2.28,1.25 7.44,3.64 15.5,7.17 4.89,2.11 8.67,4.03 11.36,5.75 2.69,1.69 5.22,3.83 7.64,6.39 6.42,6.72 9.61,14.72 9.61,24.03 0,7 -1.75,13.39 -5.22,19.2 -3.47,5.8 -8.25,10.39 -14.33,13.69 -3.28,1.72 -6.83,3.11 -10.72,4.11 -3.89,1 -7.53,1.5 -10.89,1.5l0 -9.28c4.72,-1.14 8.11,-2.72 10.2,-4.75 2.08,-2.06 3.14,-4.8 3.14,-8.28 0,-3.64 -1.64,-6.83 -4.89,-9.61 -2.17,-1.78 -6.3,-4.03 -12.39,-6.67 -6.69,-2.94 -11.28,-5.03 -13.75,-6.28 -2.47,-1.25 -4.86,-2.72 -7.14,-4.39 -10.22,-7.28 -15.33,-16.97 -15.33,-29.08 0,-6.2 1.28,-11.92 3.83,-17.14 2.56,-5.25 6.11,-9.47 10.69,-12.67 6.36,-4.47 14.22,-6.94 23.64,-7.41zm6.33 9.39l0 -9c3.25,0.22 6.08,0.64 8.47,1.28 2.39,0.61 5.78,1.86 10.19,3.72 1.08,0.42 1.97,0.64 2.67,0.64 1.06,0 1.8,-0.36 2.3,-1.06l1.78 -2.33c0.86,-1.2 1.94,-1.78 3.17,-1.78 1.47,0 2.56,0.53 3.22,1.58 0.7,1.06 1.03,2.72 1.03,4.97l0 26.94c0,1.56 -0.44,2.83 -1.33,3.83 -0.92,1 -2.06,1.5 -3.47,1.5 -1.08,0 -2.08,-0.36 -3.03,-1.06 -0.47,-0.44 -0.86,-0.97 -1.17,-1.58 -0.31,-0.64 -0.59,-1.67 -0.86,-3.14 -0.58,-2.67 -1.64,-5.42 -3.08,-8.25 -1.47,-2.81 -3.2,-5.33 -5.14,-7.56 -3.91,-4.42 -8.83,-7.31 -14.75,-8.72zm-10.5 96.89l0 9.28c-4.44,0 -9.36,-1.28 -14.72,-3.83 -2,-0.92 -3.39,-1.53 -4.14,-1.78 -0.78,-0.28 -1.5,-0.42 -2.19,-0.42 -1.08,0 -1.92,0.17 -2.44,0.53 -0.56,0.36 -1.42,1.25 -2.61,2.67 -0.97,1.19 -2.03,1.8 -3.17,1.8 -3.03,0 -4.56,-2.33 -4.56,-7.03l0 -29.61c0,-1.53 0.44,-2.8 1.31,-3.86 0.86,-1.06 1.94,-1.61 3.25,-1.67 1.2,-0.06 2.14,0.28 2.81,1.03 0.67,0.72 1.25,2 1.75,3.86 1.25,4.67 3.06,9.03 5.41,13.08 2.36,4.08 5.11,7.53 8.25,10.33 3.19,2.94 6.89,4.8 11.06,5.61zm92.64 -104.08l32.8 0 22.61 95.69c0.42,1.69 0.92,3.17 1.44,4.47 0.5,1.03 1.58,1.89 3.25,2.53 1.41,0.61 2.39,1.19 2.94,1.81 0.53,0.58 0.8,1.39 0.8,2.44 0,2.8 -2.11,4.22 -6.33,4.22l-40.61 0c-1.61,0 -2.94,-0.39 -3.91,-1.19 -0.97,-0.78 -1.47,-1.83 -1.47,-3.14 0,-1.08 0.22,-1.89 0.64,-2.44 0.44,-0.53 1.42,-1.22 2.94,-2.03 1.08,-0.56 1.83,-1.14 2.28,-1.8 0.42,-0.64 0.64,-1.47 0.64,-2.44 0,-0.92 -0.09,-1.75 -0.25,-2.44l-2.56 -11.83 -22.69 0 2.19 -9.67 18.22 0 -14.97 -66.17 2.03 -8zm-5.61 20.75l4.14 16.86 -14.36 52.56c-0.42,1.53 -0.64,2.94 -0.64,4.25 0,3.41 1.61,5.86 4.8,7.3l2.83 1.31c1.8,0.8 2.69,2.17 2.69,4.08 0,2.69 -2,4.06 -5.97,4.06l-20.69 0c-2,0 -3.58,-0.42 -4.75,-1.25 -1.17,-0.86 -1.75,-2 -1.75,-3.47 0,-1.59 1.19,-2.86 3.58,-3.92 2.22,-0.97 3.86,-1.83 4.92,-2.64 1.06,-0.78 2.08,-1.86 3.06,-3.22 1.53,-2.22 2.78,-5.17 3.75,-8.86l18.39 -67.06zm120.67 -20.75l0 111.17 -36.25 0 -2.11 0c-1.97,0 -3.47,-0.36 -4.56,-1.11 -1.06,-0.72 -1.58,-1.78 -1.58,-3.11 0,-2.22 1.08,-3.7 3.28,-4.42 1.78,-0.58 2.83,-0.94 3.14,-1.08 0.31,-0.14 0.61,-0.44 0.94,-0.94 0.64,-0.86 0.97,-2.25 0.97,-4.14l0 -81.5c0,-1.89 -0.33,-3.28 -0.97,-4.17 -0.33,-0.47 -0.64,-0.8 -0.94,-0.94 -0.3,-0.11 -1.36,-0.5 -3.14,-1.08 -2.2,-0.72 -3.28,-2.19 -3.28,-4.42 0,-1.36 0.53,-2.41 1.58,-3.14 1.09,-0.75 2.59,-1.11 4.56,-1.11l2.11 0 36.25 0zm16.33 87.89l0 -64.28c0,-3.97 -0.56,-7.11 -1.7,-9.44 -0.72,-1.53 -1.58,-2.64 -2.61,-3.33 -1.03,-0.72 -2.67,-1.31 -4.89,-1.81l0 -9.03c2.86,0 5.31,0.11 7.33,0.33 6.86,0.75 13.56,3.69 20,8.78 6.39,4.94 11.14,11.39 14.22,19.31 3.19,8.03 4.8,16.94 4.8,26.72 0,11.08 -2.03,20.92 -6.11,29.53 -4.06,8.58 -9.89,15.36 -17.47,20.31 -3.69,2.39 -7.11,4.03 -10.31,4.89 -3.17,0.86 -7.33,1.31 -12.47,1.31l0 -8.78c2.28,-0.61 3.86,-1.14 4.75,-1.64 0.92,-0.5 1.67,-1.25 2.33,-2.28 0.8,-1.2 1.36,-2.56 1.67,-4.03 0.31,-1.5 0.44,-3.7 0.44,-6.56zm79.89 -87.89l32.8 0 22.61 95.69c0.42,1.69 0.92,3.17 1.44,4.47 0.5,1.03 1.58,1.89 3.25,2.53 1.41,0.61 2.39,1.19 2.94,1.81 0.53,0.58 0.8,1.39 0.8,2.44 0,2.8 -2.11,4.22 -6.33,4.22l-40.61 0c-1.61,0 -2.94,-0.39 -3.91,-1.19 -0.97,-0.78 -1.47,-1.83 -1.47,-3.14 0,-1.08 0.22,-1.89 0.64,-2.44 0.44,-0.53 1.42,-1.22 2.94,-2.03 1.08,-0.56 1.83,-1.14 2.28,-1.8 0.42,-0.64 0.64,-1.47 0.64,-2.44 0,-0.92 -0.09,-1.75 -0.25,-2.44l-2.56 -11.83 -22.69 0 2.19 -9.67 18.22 0 -14.97 -66.17 2.03 -8zm-5.61 20.75l4.14 16.86 -14.36 52.56c-0.42,1.53 -0.64,2.94 -0.64,4.25 0,3.41 1.61,5.86 4.8,7.3l2.83 1.31c1.8,0.8 2.69,2.17 2.69,4.08 0,2.69 -2,4.06 -5.97,4.06l-20.69 0c-2,0 -3.58,-0.42 -4.75,-1.25 -1.17,-0.86 -1.75,-2 -1.75,-3.47 0,-1.59 1.19,-2.86 3.58,-3.92 2.22,-0.97 3.86,-1.83 4.92,-2.64 1.06,-0.78 2.08,-1.86 3.06,-3.22 1.53,-2.22 2.78,-5.17 3.75,-8.86l18.39 -67.06zm151.67 71.78l0 -76.97c0,-3.39 -0.97,-5.28 -2.92,-5.72l-3.19 -0.81c-2.58,-0.64 -3.89,-2.14 -3.89,-4.47 0,-1.47 0.61,-2.56 1.83,-3.31 1.22,-0.72 3.03,-1.08 5.39,-1.08l2.7 -0.08 36.22 0 2.2 -0.08 2.91 0.33c2.11,0.58 3.2,1.91 3.2,3.97 0,2.2 -1.08,3.64 -3.28,4.42l-2.58 0.81c-1.64,0.53 -2.44,2.33 -2.44,5.36l0 68.08c0,9.91 -3.25,17.5 -9.78,22.72 -3.09,2.44 -7.03,4.33 -11.81,5.72 -4.78,1.39 -9.81,2.09 -15.14,2.09 -0.92,0 -2.47,-0.09 -4.7,-0.22l0 -9.44c0.36,-0.25 0.64,-0.44 0.81,-0.56 1.08,-0.8 1.86,-1.47 2.31,-2 0.47,-0.53 0.86,-1.17 1.19,-1.92 0.64,-1.78 0.97,-4.06 0.97,-6.83zm-12.67 11.3l0 8.97c-6.75,-1.11 -12.17,-2.97 -16.22,-5.61 -3.69,-2.44 -6.53,-5.44 -8.56,-9 -2.03,-3.53 -3.06,-7.33 -3.06,-11.42 0,-4.92 1.69,-9.14 5.08,-12.67 3.39,-3.53 7.44,-5.28 12.17,-5.28 4.5,0 8.33,1.59 11.5,4.75 3.17,3.17 4.75,6.97 4.75,11.42 0,3.47 -1.17,6.69 -3.47,9.67 -1.58,2 -3.86,3.64 -6.83,4.94 -0.97,0.5 -1.47,0.89 -1.53,1.14 -0.06,0.28 0.17,0.61 0.67,1.03 0.53,0.39 1.14,0.78 1.89,1.08 0.81,0.33 2,0.67 3.61,0.97zm100.83 -103.83l32.8 0 22.61 95.69c0.42,1.69 0.92,3.17 1.44,4.47 0.5,1.03 1.58,1.89 3.25,2.53 1.41,0.61 2.39,1.19 2.94,1.81 0.53,0.58 0.8,1.39 0.8,2.44 0,2.8 -2.11,4.22 -6.33,4.22l-40.61 0c-1.61,0 -2.94,-0.39 -3.91,-1.19 -0.97,-0.78 -1.47,-1.83 -1.47,-3.14 0,-1.08 0.22,-1.89 0.64,-2.44 0.44,-0.53 1.42,-1.22 2.94,-2.03 1.08,-0.56 1.83,-1.14 2.28,-1.8 0.42,-0.64 0.64,-1.47 0.64,-2.44 0,-0.92 -0.09,-1.75 -0.25,-2.44l-2.56 -11.83 -22.69 0 2.19 -9.67 18.22 0 -14.97 -66.17 2.03 -8zm-5.61 20.75l4.14 16.86 -14.36 52.56c-0.42,1.53 -0.64,2.94 -0.64,4.25 0,3.41 1.61,5.86 4.8,7.3l2.83 1.31c1.8,0.8 2.69,2.17 2.69,4.08 0,2.69 -2,4.06 -5.97,4.06l-20.69 0c-2,0 -3.58,-0.42 -4.75,-1.25 -1.17,-0.86 -1.75,-2 -1.75,-3.47 0,-1.59 1.19,-2.86 3.58,-3.92 2.22,-0.97 3.86,-1.83 4.92,-2.64 1.06,-0.78 2.08,-1.86 3.06,-3.22 1.53,-2.22 2.78,-5.17 3.75,-8.86l18.39 -67.06zm136.33 39.5l0 35.44c0,2.14 0.41,3.64 1.22,4.58 0.44,0.53 0.86,0.86 1.25,1 0.36,0.14 1.64,0.47 3.75,1.03 2.64,0.58 3.94,2.08 3.94,4.47 0,1.56 -0.75,2.75 -2.22,3.58 -0.86,0.53 -2.56,0.81 -5.08,0.81l-2.78 0 -36.33 0 -2.67 0c-2.44,0 -4.17,-0.33 -5.14,-0.97 -1.42,-0.86 -2.11,-2 -2.11,-3.42 0,-2.39 1.31,-3.89 3.92,-4.47 2.11,-0.56 3.33,-0.89 3.72,-1.03 0.39,-0.14 0.75,-0.47 1.14,-1 0.8,-0.94 1.22,-2.44 1.22,-4.58l0 -27.47 -23.08 -55.03c-0.86,-2.06 -2.08,-3.56 -3.67,-4.47 -1.47,-0.92 -2.39,-1.67 -2.81,-2.19 -0.42,-0.56 -0.61,-1.31 -0.61,-2.28 0,-2.83 2.08,-4.25 6.25,-4.25l39.89 0c2.08,0 3.53,0.25 4.33,0.72 1.36,0.89 2.03,2.03 2.03,3.44 0,1.72 -0.78,3.08 -2.33,4.06l-2.3 1.47c-0.92,0.61 -1.36,1.5 -1.36,2.7 0,1.36 0.31,2.69 0.89,4l18.94 43.86zm3.17 -7.75l-4.58 -10.64 8.53 -19.17c0.69,-1.64 1.06,-3.86 1.06,-6.69 0,-3.17 -1.72,-5.42 -5.17,-6.78 -1.86,-0.78 -3.09,-1.42 -3.67,-2 -0.56,-0.58 -0.83,-1.44 -0.83,-2.67 0,-1.44 0.47,-2.58 1.44,-3.33 0.67,-0.5 1.39,-0.8 2.2,-0.97 0.8,-0.17 2.19,-0.25 4.19,-0.25l20.08 0c3.83,0 5.75,1.53 5.75,4.56 0,1.11 -0.25,1.94 -0.78,2.53 -0.5,0.61 -1.5,1.22 -2.97,1.89 -2.67,1.19 -4.56,2.39 -5.69,3.58 -1.64,1.75 -3,3.72 -4.08,5.94l-1.89 4.17 -13.58 29.83zm68.83 -52.5l32.8 0 22.61 95.69c0.42,1.69 0.92,3.17 1.44,4.47 0.5,1.03 1.58,1.89 3.25,2.53 1.41,0.61 2.39,1.19 2.94,1.81 0.53,0.58 0.8,1.39 0.8,2.44 0,2.8 -2.11,4.22 -6.33,4.22l-40.61 0c-1.61,0 -2.94,-0.39 -3.91,-1.19 -0.97,-0.78 -1.47,-1.83 -1.47,-3.14 0,-1.08 0.22,-1.89 0.64,-2.44 0.44,-0.53 1.42,-1.22 2.94,-2.03 1.08,-0.56 1.83,-1.14 2.28,-1.8 0.42,-0.64 0.64,-1.47 0.64,-2.44 0,-0.92 -0.09,-1.75 -0.25,-2.44l-2.56 -11.83 -22.69 0 2.19 -9.67 18.22 0 -14.97 -66.17 2.03 -8zm-5.61 20.75l4.14 16.86 -14.36 52.56c-0.42,1.53 -0.64,2.94 -0.64,4.25 0,3.41 1.61,5.86 4.8,7.3l2.83 1.31c1.8,0.8 2.69,2.17 2.69,4.08 0,2.69 -2,4.06 -5.97,4.06l-20.69 0c-2,0 -3.58,-0.42 -4.75,-1.25 -1.17,-0.86 -1.75,-2 -1.75,-3.47 0,-1.59 1.19,-2.86 3.58,-3.92 2.22,-0.97 3.86,-1.83 4.92,-2.64 1.06,-0.78 2.08,-1.86 3.06,-3.22 1.53,-2.22 2.78,-5.17 3.75,-8.86l18.39 -67.06zm162.33 90.42l-36.25 0 -2.11 0c-1.97,0 -3.47,-0.36 -4.56,-1.11 -1.06,-0.72 -1.58,-1.78 -1.58,-3.11 0,-2.22 1.08,-3.7 3.28,-4.42 1.78,-0.58 2.83,-0.94 3.14,-1.08 0.31,-0.14 0.61,-0.44 0.94,-0.94 0.64,-0.86 0.97,-2.25 0.97,-4.14l0 -81.5c0,-1.89 -0.33,-3.28 -0.97,-4.17 -0.33,-0.47 -0.64,-0.8 -0.94,-0.94 -0.3,-0.11 -1.36,-0.5 -3.14,-1.08 -2.2,-0.72 -3.28,-2.19 -3.28,-4.42 0,-1.36 0.53,-2.41 1.58,-3.14 1.09,-0.75 2.59,-1.11 4.56,-1.11l2.11 0 36.33 0 2.78 0c2.42,0 4.14,0.33 5.17,0.97 1.42,0.89 2.14,2.03 2.14,3.44 0,2.39 -1.31,3.89 -3.94,4.5 -2.11,0.47 -3.39,0.8 -3.75,0.97 -0.39,0.17 -0.8,0.47 -1.25,0.97 -0.81,0.97 -1.22,2.5 -1.22,4.58l0 95.72zm6.5 0l0 -9.08c2.67,-0.5 4.78,-1.06 6.33,-1.64 1.53,-0.59 3.03,-1.47 4.44,-2.61 2.28,-1.78 4.36,-4.25 6.28,-7.39 1.89,-3.14 3.44,-6.61 4.64,-10.47 0.89,-2.97 1.69,-4.94 2.41,-5.89 0.72,-0.94 1.81,-1.42 3.22,-1.42 1.53,0 2.64,0.61 3.33,1.86 0.33,0.61 0.5,1.8 0.5,3.58l0 33.06 -31.17 0zm82.36 0l-36.33 0 -2.11 0c-1.97,0 -3.47,-0.36 -4.56,-1.11 -1.06,-0.72 -1.58,-1.78 -1.58,-3.11 0,-2.22 1.08,-3.7 3.28,-4.42 1.78,-0.58 2.83,-0.94 3.14,-1.08 0.31,-0.14 0.61,-0.44 0.94,-0.94 0.64,-0.86 0.97,-2.25 0.97,-4.14l0 -81.5c0,-1.89 -0.33,-3.28 -0.97,-4.17 -0.33,-0.47 -0.64,-0.8 -0.94,-0.94 -0.3,-0.11 -1.36,-0.5 -3.14,-1.08 -2.2,-0.72 -3.28,-2.19 -3.28,-4.42 0,-1.36 0.53,-2.41 1.58,-3.14 1.09,-0.75 2.59,-1.11 4.56,-1.11l2.11 0 36.33 0 2.11 0c1.97,0 3.47,0.36 4.56,1.11 1.06,0.72 1.58,1.78 1.58,3.14 0,2.22 -1.08,3.7 -3.28,4.42 -1.78,0.58 -2.83,0.97 -3.14,1.08 -0.31,0.14 -0.61,0.47 -0.94,0.94 -0.64,0.89 -0.97,2.28 -0.97,4.17l0 81.5c0,1.89 0.33,3.28 0.97,4.14 0.33,0.5 0.64,0.8 0.94,0.94 0.31,0.14 1.36,0.5 3.14,1.08 2.2,0.72 3.28,2.19 3.28,4.42 0,1.33 -0.53,2.39 -1.58,3.11 -1.08,0.75 -2.58,1.11 -4.56,1.11l-2.11 0zm67.53 -111.17l43.31 75.28 0 35.89 -22.22 0 -55.3 -95.28c-1.19,-2.09 -2.17,-3.5 -2.92,-4.33 -0.78,-0.81 -1.75,-1.39 -2.94,-1.78l-3.08 -1.14c-0.83,-0.28 -1.47,-0.78 -1.97,-1.47 -0.47,-0.69 -0.72,-1.5 -0.72,-2.36 0,-0.91 0.25,-1.78 0.75,-2.56 0.47,-0.8 1.14,-1.36 1.94,-1.67 0.94,-0.39 3.44,-0.58 7.53,-0.58l35.64 0zm-34.03 28.67l8.67 14.33 0 43.58c0,3.8 0.64,6.92 1.91,9.36 1.25,2.44 3.28,4.44 6.03,6.03l2.44 1.39c1.42,0.81 2.11,2.03 2.11,3.67 0,1.25 -0.5,2.28 -1.53,3.08 -0.89,0.69 -2.67,1.06 -5.36,1.06l-18.83 0c-4.97,0 -7.44,-1.42 -7.44,-4.22 0,-0.97 0.25,-1.75 0.78,-2.33 0.53,-0.56 1.64,-1.33 3.39,-2.31 5.22,-2.89 7.83,-8.11 7.83,-15.72l0 -57.92zm77.33 33.61l-8.67 -14.56 0 -22.56c0,-4.58 -0.67,-8.08 -2,-10.5 -1.3,-2.42 -3.64,-4.5 -7,-6.25 -1.14,-0.56 -1.92,-1.14 -2.36,-1.75 -0.42,-0.64 -0.64,-1.44 -0.64,-2.42 0,-1.47 0.47,-2.56 1.41,-3.22 0.94,-0.69 2.47,-1.03 4.56,-1.03l20.39 0c2.75,0 4.56,0.44 5.42,1.3 0.92,0.86 1.39,1.92 1.39,3.11 0,1.14 -0.25,2 -0.78,2.56 -0.5,0.58 -1.75,1.36 -3.69,2.33 -2.86,1.47 -5.03,3.75 -6.47,6.78 -1.03,2.25 -1.56,5.28 -1.56,9.08l0 37.11zm67.06 -62.28l0 111.17 -36.25 0 -2.11 0c-1.97,0 -3.47,-0.36 -4.56,-1.11 -1.06,-0.72 -1.58,-1.78 -1.58,-3.11 0,-2.22 1.08,-3.7 3.28,-4.42 1.78,-0.58 2.83,-0.94 3.14,-1.08 0.31,-0.14 0.61,-0.44 0.94,-0.94 0.64,-0.86 0.97,-2.25 0.97,-4.14l0 -81.5c0,-1.89 -0.33,-3.28 -0.97,-4.17 -0.33,-0.47 -0.64,-0.8 -0.94,-0.94 -0.3,-0.11 -1.36,-0.5 -3.14,-1.08 -2.2,-0.72 -3.28,-2.19 -3.28,-4.42 0,-1.36 0.53,-2.41 1.58,-3.14 1.09,-0.75 2.59,-1.11 4.56,-1.11l2.11 0 36.25 0zm7.17 0l32.83 0 0 28.92c0,1.67 -0.33,2.86 -0.97,3.61 -0.67,0.75 -1.69,1.14 -3.11,1.14 -1.19,0 -2.06,-0.25 -2.61,-0.72 -0.53,-0.5 -1.06,-1.5 -1.53,-3.03 -2.08,-6.31 -5.11,-11.11 -9.08,-14.42 -4,-3.31 -9.17,-5.31 -15.53,-5.94l0 -9.56zm-0.33 59.33l0 -9.41c3.14,-1.53 5.47,-3.2 6.97,-4.97 1.53,-1.78 2.64,-4.17 3.33,-7.17 0.44,-2.06 1,-3.47 1.72,-4.28 0.69,-0.78 1.69,-1.17 3,-1.17 1.72,0 2.92,0.67 3.58,2.03 0.36,0.72 0.56,2.3 0.56,4.8l0 31c0,2.58 -0.28,4.36 -0.86,5.36 -0.56,0.97 -1.61,1.47 -3.11,1.47 -1.25,0 -2.22,-0.39 -2.92,-1.14 -0.72,-0.78 -1.28,-2.06 -1.72,-3.83 -0.92,-3.78 -2.22,-6.67 -3.94,-8.67 -1.69,-2.03 -3.92,-3.36 -6.61,-4.03zm0.5 51.83l0 -8.81c3.53,-0.56 6.44,-1.3 8.75,-2.28 2.31,-1 4.61,-2.47 6.94,-4.5 2.33,-2 4.2,-4.08 5.58,-6.25 1.36,-2.14 2.7,-4.97 3.94,-8.5 0.58,-1.75 1.22,-2.94 1.86,-3.56 0.64,-0.64 1.56,-0.94 2.69,-0.94 1.5,0 2.56,0.44 3.17,1.33 0.58,0.92 0.89,2.47 0.89,4.69l0 28.81 -33.83 0zm83.47 -113.36l0 9.39c-3.36,0.92 -5.92,2.33 -7.69,4.28 -1.75,1.92 -2.64,4.3 -2.64,7.11 0,2.72 0.72,5.08 2.19,7.14 1.47,2.03 3.86,3.97 7.19,5.81 2.28,1.25 7.44,3.64 15.5,7.17 4.89,2.11 8.67,4.03 11.36,5.75 2.69,1.69 5.22,3.83 7.64,6.39 6.42,6.72 9.61,14.72 9.61,24.03 0,7 -1.75,13.39 -5.22,19.2 -3.47,5.8 -8.25,10.39 -14.33,13.69 -3.28,1.72 -6.83,3.11 -10.72,4.11 -3.89,1 -7.53,1.5 -10.89,1.5l0 -9.28c4.72,-1.14 8.11,-2.72 10.2,-4.75 2.08,-2.06 3.14,-4.8 3.14,-8.28 0,-3.64 -1.64,-6.83 -4.89,-9.61 -2.17,-1.78 -6.3,-4.03 -12.39,-6.67 -6.69,-2.94 -11.28,-5.03 -13.75,-6.28 -2.47,-1.25 -4.86,-2.72 -7.14,-4.39 -10.22,-7.28 -15.33,-16.97 -15.33,-29.08 0,-6.2 1.28,-11.92 3.83,-17.14 2.56,-5.25 6.11,-9.47 10.69,-12.67 6.36,-4.47 14.22,-6.94 23.64,-7.41zm6.33 9.39l0 -9c3.25,0.22 6.08,0.64 8.47,1.28 2.39,0.61 5.78,1.86 10.19,3.72 1.08,0.42 1.97,0.64 2.67,0.64 1.06,0 1.8,-0.36 2.3,-1.06l1.78 -2.33c0.86,-1.2 1.94,-1.78 3.17,-1.78 1.47,0 2.56,0.53 3.22,1.58 0.7,1.06 1.03,2.72 1.03,4.97l0 26.94c0,1.56 -0.44,2.83 -1.33,3.83 -0.92,1 -2.06,1.5 -3.47,1.5 -1.08,0 -2.08,-0.36 -3.03,-1.06 -0.47,-0.44 -0.86,-0.97 -1.17,-1.58 -0.31,-0.64 -0.59,-1.67 -0.86,-3.14 -0.58,-2.67 -1.64,-5.42 -3.08,-8.25 -1.47,-2.81 -3.2,-5.33 -5.14,-7.56 -3.91,-4.42 -8.83,-7.31 -14.75,-8.72zm-10.5 96.89l0 9.28c-4.44,0 -9.36,-1.28 -14.72,-3.83 -2,-0.92 -3.39,-1.53 -4.14,-1.78 -0.78,-0.28 -1.5,-0.42 -2.19,-0.42 -1.08,0 -1.92,0.17 -2.44,0.53 -0.56,0.36 -1.42,1.25 -2.61,2.67 -0.97,1.19 -2.03,1.8 -3.17,1.8 -3.03,0 -4.56,-2.33 -4.56,-7.03l0 -29.61c0,-1.53 0.44,-2.8 1.31,-3.86 0.86,-1.06 1.94,-1.61 3.25,-1.67 1.2,-0.06 2.14,0.28 2.81,1.03 0.67,0.72 1.25,2 1.75,3.86 1.25,4.67 3.06,9.03 5.41,13.08 2.36,4.08 5.11,7.53 8.25,10.33 3.19,2.94 6.89,4.8 11.06,5.61z"/>
 </g>
</svg>
